# xmcd CD database file
# Copyright (C) 1995 Ti Kan
#
# Track frame offsets:
#	150
#	16807
#	38730
#	63867
#	87297
#	104165
#	124710
#	157380
#	178687
#	206517
#	223152
#	241140
#
# Disc length: 3555 seconds
#
# Revision: 1
# Processed by: cddbd v1.4b41PL1 Copyright (c) Steve Scherf et al.
# Submitted via: xmcd 1.4
#
DISCID=a70de10c
DTITLE=The Radio Kings/Live at B.B. Kings
DYEAR=1900
DGENRE=
TTITLE0=I'm Tryin'
TTITLE1=Chonnie-On-Chon
TTITLE2=Something To Remember You By
TTITLE3=Love In The Light
TTITLE4=When You Got A Good Friend
TTITLE5=I Got Love If You Want It
TTITLE6=Rainin' In My Heart
TTITLE7=How Long
TTITLE8=The Other Side Of Town
TTITLE9=I'm Leaving You
TTITLE10=Zing Zing
TTITLE11=Cookin' At Ma's
EXTD=
EXTT0=
EXTT1=
EXTT2=
EXTT3=
EXTT4=
EXTT5=
EXTT6=
EXTT7=
EXTT8=
EXTT9=
EXTT10=
EXTT11=
PLAYORDER=
